<svg xmlns="http://www.w3.org/2000/svg" width="151.731" height="140.072" viewBox="0 0 151.731 140.072">
  <g id="shopping-cart" transform="translate(0 -19.666)">
    <path id="Tracé_524" data-name="Tracé 524" d="M182.884,52.424a3.007,3.007,0,0,0-2.324-1.1h-7.106A22.549,22.549,0,0,0,149.739,26.4v-3.73a3.007,3.007,0,0,0-3.007-3.007H106.139a3.007,3.007,0,0,0-3.007,3.007V30.04H71.71A3.007,3.007,0,0,0,68.7,33.047V51.325H63.322L59.475,35.22a3.007,3.007,0,0,0-2.925-2.308H48.256a3.007,3.007,0,1,0,0,6.014h5.921l18.546,77.65L65.7,134.525a12.66,12.66,0,1,0,12.262,5.922h68.91a12.648,12.648,0,1,0,10.765-6.013H72.194L77.9,119.851h84.434c4.88,0,9.064-3.913,10.174-9.514l11-55.42a3.008,3.008,0,0,0-.625-2.494ZM67.2,153.724a6.638,6.638,0,1,1,6.638-6.638A6.646,6.646,0,0,1,67.2,153.724Zm97.077-6.638a6.638,6.638,0,1,1-6.638-6.638A6.646,6.646,0,0,1,164.275,147.086ZM174.2,70.944H146.331l-3.373-13.6H176.9Zm-3.9,19.619H151.2l-3.373-13.605H173Zm-39.494,23.274-4.28-17.261h19.963l4.28,17.261Zm-26.159,0-4.279-17.261h19.963l4.28,17.261Zm-26.4,0L74.13,96.576H94.173l4.279,17.261Zm58.51-56.5,3.373,13.6H120.173l-3.373-13.6Zm-26.159,0,3.373,13.6H94.014l-3.373-13.6Zm4.864,19.619,3.373,13.605H98.878L95.505,76.957ZM92.682,90.563H72.693L69.444,76.957H89.309Zm32.354,0-3.373-13.605h19.963L145,90.563Zm42.385-43.82a16.565,16.565,0,0,1-.029,4.583H149.739v-18.9A16.56,16.56,0,0,1,167.421,46.742ZM109.146,25.68h34.579V51.325H115.31V33.047A3.007,3.007,0,0,0,112.3,30.04h-3.157ZM74.717,36.054H109.3V51.325H74.717Zm9.728,21.285,3.373,13.6H68.007l-3.249-13.6Zm77.888,56.5h-5.367l-4.28-17.261h16.421l-2.5,12.591c-.536,2.706-2.334,4.67-4.275,4.67Z" transform="translate(-31.836)" fill="#fff"/>
    <circle id="Ellipse_17" data-name="Ellipse 17" cx="2.964" cy="2.964" r="2.964" transform="translate(0 33.014)" fill="#fff"/>
  </g>
</svg>
